<svg width="32" height="32" viewBox="0 0 32 32"
  xmlns="http://www.w3.org/2000/svg">
  <defs>
    <linearGradient id="gradient">
      <stop style="stop-color:#93c5fd;stop-opacity:1;" offset="0"/>
      <stop style="stop-color:#f9a8d4;stop-opacity:1;" offset="1"/>
    </linearGradient>
  </defs>
  <path id="rect1" style="font-variation-settings:'wght' 600;fill:url(#gradient);stroke:#1e293b;stroke-width:2;stroke-linecap:round;stroke-linejoin:round;paint-order:stroke fill markers" d="M 2.2084569,8.3832342 H 29.791593 c 1.182921,-0.00645 1.257048,1.2820508 1.183456,2.1605528 -0.01594,3.946053 0.03188,7.895308 -0.02396,11.83944 -0.27522,1.219507 -1.662764,0.903691 -2.58758,0.942327 H 2.2084569 C 1.0254715,23.331954 0.95133444,22.043503 1.0249688,21.165001 1.0409068,17.218948 0.9930718,13.269693 1.0489288,9.325561 1.1493685,8.7882137 1.660627,8.3727212 2.2084569,8.3832342 Z" />
  <path d="m 6.2192753,19.847409 c -0.7007356,0 -1.3910208,-0.114842 -2.0708448,-0.34442 C 3.4790783,19.262951 2.8986137,18.981181 2.4070473,18.65768 l 0.9883526,-1.440119 c 0.4811053,0.292122 0.9831328,0.5217 1.5060719,0.688734 0.5333895,0.156574 1.0772509,0.234808 1.6315626,0.234808 0.4288103,0 0.7425802,-0.06265 0.941299,-0.187847 0.198708,-0.125195 0.2980674,-0.281769 0.2980674,-0.469615 0,-0.146115 -0.057525,-0.26608 -0.1725659,-0.360004 C 7.4952449,17.029714 7.3069873,16.940914 7.035062,16.857451 6.7631259,16.763528 6.3709296,16.664375 5.858441,16.560099 4.8021124,16.330414 4.0438512,16.022602 3.5836576,15.63645 3.1234746,15.239944 2.8933831,14.73895 2.8933831,14.133679 c 0,-0.720006 0.3189898,-1.304464 0.9569799,-1.753268 0.6379795,-0.448696 1.5112917,-0.673045 2.619926,-0.673045 0.7007356,0 1.3334952,0.114736 1.8982682,0.344314 0.575234,0.219225 1.06679,0.459263 1.474678,0.720113 L 8.8078179,14.149369 C 8.4208521,13.909331 8.0077229,13.726714 7.5684622,13.601519 7.1291908,13.476217 6.6951499,13.413673 6.2663397,13.413673 c -0.3556037,0 -0.6275291,0.05731 -0.8157867,0.172157 -0.1777965,0.114735 -0.2666948,0.26085 -0.2666948,0.438343 0,0.219119 0.1359627,0.375693 0.407888,0.469616 0.2719254,0.09392 0.7373496,0.213889 1.3962513,0.360003 0.8053256,0.177387 1.4276241,0.380923 1.8668848,0.610501 0.4392709,0.219118 0.7477889,0.480075 0.9255649,0.782657 0.177882,0.302689 0.2667698,0.667922 0.2667698,1.095806 0,0.699194 -0.3294518,1.294005 -0.9883858,1.78454 -0.6484402,0.480075 -1.594959,0.720113 -2.8395559,0.720113 z m 8.1892087,-0.187846 -2.933718,-7.76435 h 2.32188 l 1.223675,3.663003 c 0.125576,0.386152 0.245804,0.782657 0.360898,1.189729 0.114987,0.396505 0.230081,0.798347 0.345068,1.205311 h 0.06279 c 0.115094,-0.406964 0.22484,-0.808806 0.329451,-1.205311 0.115094,-0.407072 0.235322,-0.803577 0.360792,-1.189729 l 1.223674,-3.663003 h 2.212028 l -2.855206,7.76435 z m 10.338553,3.302893 c -0.669384,0 -1.270739,-0.06777 -1.804171,-0.203429 -0.533433,-0.135655 -0.957012,-0.35488 -1.270739,-0.657462 -0.303245,-0.292229 -0.454921,-0.667922 -0.454921,-1.127078 0,-0.63665 0.402615,-1.153227 1.207951,-1.549732 v -0.06265 c -0.219598,-0.135655 -0.407856,-0.307919 -0.564773,-0.516578 -0.146434,-0.219118 -0.219598,-0.490535 -0.219598,-0.814036 0,-0.26085 0.08365,-0.521807 0.250939,-0.782657 0.177882,-0.260957 0.402721,-0.485305 0.674625,-0.673152 v -0.06254 c -0.282386,-0.187846 -0.522949,-0.454033 -0.72169,-0.798454 -0.198633,-0.344313 -0.298003,-0.740925 -0.298003,-1.189622 0,-0.62619 0.151676,-1.147997 0.45492,-1.565421 0.313728,-0.417425 0.72169,-0.730466 1.223675,-0.939232 0.512467,-0.208659 1.061624,-0.313042 1.647255,-0.313042 0.481126,0 0.909947,0.06255 1.286462,0.187847 h 3.153316 v 1.690617 h -1.568849 c 0.08365,0.114735 0.162158,0.26608 0.235322,0.453926 0.07327,0.177387 0.109852,0.365233 0.109852,0.563539 0,0.594811 -0.146434,1.085346 -0.439303,1.471498 -0.282387,0.375693 -0.664143,0.657462 -1.145163,0.845309 -0.481127,0.187846 -1.025041,0.281769 -1.631637,0.281769 -0.156811,0 -0.32421,-0.01046 -0.501985,-0.03127 -0.177775,-0.03138 -0.366033,-0.07311 -0.564773,-0.125302 -0.115094,0.08346 -0.203982,0.167034 -0.26677,0.250497 -0.0522,0.08346 -0.07841,0.193076 -0.07841,0.328731 0,0.386153 0.439304,0.579229 1.317804,0.579229 h 1.44338 c 1.024934,0 1.804064,0.151237 2.337496,0.453926 0.543808,0.302689 0.815819,0.803577 0.815819,1.502771 0,0.542619 -0.188257,1.022695 -0.564773,1.440119 -0.376515,0.427884 -0.915189,0.761845 -1.615914,1.001883 -0.690242,0.240037 -1.506061,0.360003 -2.447349,0.360003 z m 0.12547,-7.153743 c 0.324209,0 0.601354,-0.109612 0.831542,-0.328731 0.230081,-0.219225 0.345068,-0.537496 0.345068,-0.954921 0,-0.406965 -0.114987,-0.720113 -0.345068,-0.939231 -0.230188,-0.219119 -0.507333,-0.328731 -0.831542,-0.328731 -0.32421,0 -0.601355,0.109612 -0.831436,0.328731 -0.219705,0.219118 -0.329451,0.532266 -0.329451,0.939231 0,0.417425 0.109746,0.735696 0.329451,0.954921 0.230081,0.219119 0.507226,0.328731 0.831436,0.328731 z m 0.203981,5.697934 c 0.617079,0 1.119063,-0.09392 1.506061,-0.28177 0.397374,-0.177386 0.596114,-0.396505 0.596114,-0.657462 0,-0.25039 -0.114987,-0.412194 -0.345068,-0.485198 -0.230188,-0.07311 -0.570014,-0.109613 -1.0198,-0.109613 h -0.972629 c -0.533432,0 -0.930806,-0.0365 -1.192334,-0.109612 -0.366033,0.229578 -0.549049,0.485305 -0.549049,0.767074 0,0.292229 0.177775,0.511348 0.533325,0.657462 0.355657,0.146115 0.836784,0.219119 1.44338,0.219119 z" id="text1" style="font-weight:bold;font-size:14.6667px;line-height:0px;font-family:'Source Code Pro';-inkscape-font-specification:'Source Code Pro Bold';fill:#1e293b;stroke-width:1;stroke-linecap:round;stroke-linejoin:round" aria-label="svg" />
</svg>
